PathFileType	4	(X/Y/Z)	Patient4_TMGait_0pt7_01_right_36.trc.trc
DataRate	CameraRate	NumFrames	NumMarkers	Units	OrigDataRate	OrigDataStartFrame	OrigNumFrames
81.871345029240	81.871345029240	5	33	mm	81.871345029240	18	       141
Frame#	Time	Sacral			L.Shoulder			Chest			R.Shoulder			Neck			R.ASIS			L.ASIS			R.Thigh.Superior			R.Thigh.Lateral			R.Thigh.Inferior			R.Patella			L.Thigh.Superior			L.Thigh.Lateral			L.Thigh.Inferior			L.Patella			L.Shank.Superior			L.Shank.Lateral			L.Shank.Inferior			R.Shank.Superior			R.Shank.Lateral			R.Shank.Inferior			R.Heel			R.Midfoot.Superior			R.Midfoot.Lateral			R.Toe			L.Heel			L.Midfoot.Lateral			L.Midfoot.Superior			L.Toe			L.Elbow			L.Wrist			R.Elbow			R.Wrist			
		X1	Y1	Z1	X2	Y2	Z2	X3	Y3	Z3	X4	Y4	Z4	X5	Y5	Z5	X6	Y6	Z6	X7	Y7	Z7	X8	Y8	Z8	X9	Y9	Z9	X10	Y10	Z10	X11	Y11	Z11	X12	Y12	Z12	X13	Y13	Z13	X14	Y14	Z14	X15	Y15	Z15	X16	Y16	Z16	X17	Y17	Z17	X18	Y18	Z18	X19	Y19	Z19	X20	Y20	Z20	X21	Y21	Z21	X22	Y22	Z22	X23	Y23	Z23	X24	Y24	Z24	X25	Y25	Z25	X26	Y26	Z26	X27	Y27	Z27	X28	Y28	Z28	X29	Y29	Z29	X30	Y30	Z30	X31	Y31	Z31	X32	Y32	Z32	X33	Y33	Z33	

18	41.187642857143	833.228345035274	1005.796692651754	435.000603555910	1059.829404121157	1416.039093024057	255.928190262475	1136.863988730892	1345.967250198745	431.612176914272	1039.136649009033	1437.959570964668	588.725636190490	1051.871238461186	1485.016785233621	406.662479715335	1042.976841211432	938.983731514884	580.598743491657	1063.738490585785	953.400274699990	303.304023147829	1119.041794624583	768.688524327205	561.025075161536	1074.521998448311	649.337457311476	633.003510036420	1165.106174621003	611.384540918326	555.012741651459	1200.822298658641	536.887804358711	573.905020330282	1068.878701619302	732.343891126729	337.900873405690	964.503059442445	634.462983674315	263.010539613481	1018.965746694406	542.889463445523	334.297718165016	1003.857554674529	476.661068339276	343.111359822930	973.706934507586	408.842027774630	331.578555771970	879.380996082503	303.606826303574	270.869118926051	908.474613157980	189.046680214436	348.002670658269	1197.934006840630	450.227443490614	587.035089157884	1162.064933490985	331.981728296686	653.584428073714	1243.919832996472	255.397128115843	603.895185307839	1180.909870080706	54.195439771879	581.694188271825	1332.617847363876	152.173233524335	616.750791465320	1268.210390281716	63.153008701507	649.861659350266	1462.265394031624	134.544704623099	635.621606236831	765.787250908694	39.631079193828	378.072713205658	845.181468243216	35.580124454974	303.291857902185	926.798591672446	95.612288117364	336.705532035909	1056.661611284575	41.336227864237	317.669557041909	1113.308900085710	1086.640346054367	113.818964198851	1352.679898023675	995.099357058876	153.283463821511	891.358695300169	1132.676452188713	718.681753025878	850.389090970283	880.316612039364	773.687101007442	
19	41.199857142857	834.921242102780	1003.774554802863	437.355699964532	1059.698212417605	1415.081580075894	258.761578640686	1137.066622781566	1345.003988617531	434.280974240439	1039.064499868363	1436.646498526240	591.414132254501	1051.637742155700	1483.689083603182	409.423102978347	1044.737919548290	937.196222628109	582.965871593673	1065.345354419143	952.357914017561	305.608776166013	1119.955099954878	765.912066398550	563.579355628057	1073.668745399412	645.741135187891	633.621377523249	1164.841662339687	608.571865028731	556.228291751129	1199.160842659717	534.053222419895	573.723383663111	1068.068161022363	730.395586233716	339.277531453170	961.885857383995	633.894765462125	264.288183299634	1015.169036654914	541.503885686841	335.188688886305	999.294229942728	475.286761660643	343.929681689167	968.449652835233	407.836875350194	332.266713248695	872.912936960753	303.688079008171	271.494210058928	900.907476302777	188.610926093012	348.248609420142	1197.079902323119	447.075761498564	586.379409163294	1161.366025847948	328.169384996595	651.483888406993	1244.073717130628	252.539781665319	601.714595496932	1182.614750162775	51.401223021883	577.587924605333	1333.255281923171	149.789333194230	614.011272445058	1269.240371549524	60.572878294686	646.380380444622	1462.854867068702	132.990817858123	633.876035466667	757.232028781988	39.628601202501	378.102921438189	836.621122815802	35.601438432079	303.370080499118	918.298579722383	95.612056592790	336.720423002733	1048.108788960195	41.158031117100	317.609669135460	1113.412298601377	1085.787558938334	117.002091392015	1356.168371419363	1007.631379310049	158.986751569858	886.790826759889	1134.532200261946	721.406083260964	842.618184926413	882.545002473871	774.059497693233	
20	41.212071428571	836.771318064565	1001.573206287273	440.078252715466	1059.402596857654	1413.933971252672	261.724391778769	1137.263988788475	1343.990917796137	437.061567053891	1038.990022339856	1435.251984560039	594.247039603952	1051.315200185418	1482.224449195146	412.294454382039	1046.907285606794	935.234388054277	585.395684792224	1066.998673181209	951.226279361955	307.977372946214	1121.741444772600	763.308469021178	566.065314081377	1073.608074646148	642.117916177095	633.992447284255	1165.540637421485	605.919650968195	557.397533523651	1198.318634020404	530.858112094531	573.458259332317	1067.321486697300	728.356786164026	340.579666491145	959.235970228052	633.298727625006	265.637810106430	1011.468244018866	540.047830251077	336.039601683980	994.858465613279	473.799455370203	344.706696869135	963.264425461106	406.758769308388	332.939414906606	866.394976980002	303.770083826248	272.156688466576	893.325896204443	188.131424591827	348.462760589229	1196.356452227732	443.334600474703	585.624557289063	1159.659381686336	324.154726697477	649.241067371121	1242.414226827699	248.759298862433	599.480058676357	1180.515426987966	48.750463625611	573.448435698049	1330.927472798101	145.840543802792	611.344564216644	1266.318294065900	57.436833462862	643.110231192039	1460.173853304630	128.494465077846	632.652310785416	748.653142655483	39.543825371532	378.119203882023	828.063673303018	35.556667277840	303.436978350128	909.796642889396	95.590693679257	336.708769939238	1039.595296546466	41.006147503736	317.525534246074	1113.171894712765	1084.599784285414	120.457043855308	1358.468610429792	1019.512661996320	164.819524821122	882.429989199054	1136.263112906590	724.271282531581	836.321089066505	884.280045749763	774.064456524684	
21	41.224285714286	838.738824913360	999.230175952773	443.151440134746	1058.961115042598	1412.615700118904	264.820919255410	1137.469720069531	1342.934002128740	439.957213900035	1038.938148831231	1433.770130498504	597.241974403061	1050.924364667809	1480.647635046020	415.294122094408	1049.457516157468	933.133482772076	587.861097876509	1068.654264939419	950.007292410140	310.390475456968	1124.318813099731	760.825905984700	568.397223089016	1074.302759255667	638.547018132455	634.183139013140	1167.074904644918	603.392684760431	558.495556388481	1198.213245211931	527.358769918754	573.139276593329	1066.696769287981	726.261276162687	341.791150318382	956.643848966996	632.657485880469	267.084540529686	1007.997798937878	538.516285697475	336.875572569518	990.711107526054	472.163016548095	345.457246044366	958.264936437317	405.575835629701	333.624159388544	859.913813671427	303.859173580496	272.875364594907	885.770654089143	187.598814670506	348.646234487141	1195.805361800512	439.143963412657	584.839923847781	1157.230926402418	320.012563580823	647.015184139209	1239.350460990028	244.226171590969	597.306879976092	1175.265186834125	46.303993537282	569.520567578790	1326.271361124539	140.547856245664	608.822061376903	1260.188771363523	53.871803999823	640.192400524036	1454.925081578812	121.367583478701	631.822009007893	740.038912814772	39.411255581863	378.100508421098	819.505904616777	35.444726366740	303.480060056886	901.305570403103	95.537319623930	336.662871313767	1031.127955899196	40.872124054471	317.418039959936	1112.557180629570	1083.095027198901	124.144252852162	1359.640275355650	1030.580475787783	170.718823151239	878.429887176358	1137.719073947049	727.193131812644	831.290523491861	885.426595016888	773.818433257961	
22	41.236500000000	840.779989490044	996.800790096494	446.548324006227	1058.401607784681	1411.174193285794	268.055697949008	1137.702721183682	1341.853148391417	442.967876320477	1038.948054788591	1432.210681009982	600.416329933703	1050.499438873969	1479.006524592471	418.444255530149	1052.340756500241	930.959645815875	590.339118136480	1070.264935371970	948.719074277605	312.836228475043	1127.555670846537	758.438688197954	570.507878656086	1075.697623933359	635.140961221456	634.290362915775	1169.283213056229	600.987789288604	559.506356549261	1198.742036994858	523.665967393337	572.811317512057	1066.268940564635	724.159308638904	342.920972962415	954.235522315557	631.954606615203	268.665669663728	1004.932782970705	536.912598654689	337.740780261364	987.053797474549	470.344356589962	346.208831411672	953.596802859412	404.262629351054	334.357538575537	853.588357139737	303.979782309500	273.675512864523	878.304662209771	187.021920302831	348.801933592691	1195.462558369921	434.709999135552	584.097836628954	1154.410506691113	315.885676268491	644.971282158093	1235.342310694985	239.216853374248	595.299705230358	1167.650834907045	44.171426539268	566.016495021283	1319.983293055375	134.296389949832	606.501038138487	1251.726087915620	50.105430026224	637.734138399293	1447.870100905023	112.188548904822	631.237853334996	731.384250321364	39.311206299610	378.024341029920	810.946126123349	35.288824794057	303.486285041601	892.850675638657	95.446962805166	336.572086378963	1022.707044201974	40.743698814392	317.289501119340	1111.523414849761	1081.308395692035	128.035663612081	1359.749240777419	1040.679994678441	176.620003949776	874.953341749898	1138.758892941600	730.096227997841	827.377846433471	885.928441087167	773.429446121328	
